P1
# CREATOR: XV Version 3.00  Rev: 3/30/93
20 39
1 1 1 1 1 1 1 1 1 1 1 1 1 1 1 1 1 1 1 1
1 1 1 1 1 1 1 1 0 0 0 0 0 0 0 1 1 1 1 1
1 1 1 1 1 1 0 0 0 0 0 0 0 0 0 0 0 1 1 1
1 1 1 1 1 0 0 0 0 0 1 1 1 1 0 0 0 0 1 1
1 1 1 1 0 0 0 0 0 1 1 1 1 1 1 1 0 0 0 1
1 1 1 1 0 0 0 0 1 1 1 1 1 1 1 1 0 0 0 1
1 1 1 1 0 0 0 1 1 1 1 1 1 1 1 0 0 0 0 1
1 1 1 1 0 0 0 1 1 1 1 1 1 1 0 0 0 0 0 1
1 1 1 1 0 0 0 0 1 1 1 1 1 1 0 0 0 0 0 1
1 1 1 1 1 0 0 0 0 1 1 1 1 0 0 0 0 0 1 1
1 1 1 1 1 1 0 0 0 0 1 1 0 0 0 0 0 1 1 1
1 1 1 1 1 1 0 0 0 0 0 0 0 0 0 0 1 1 1 1
1 1 1 1 1 1 1 0 0 0 0 0 0 0 0 1 1 1 1 1
1 1 1 1 1 1 1 1 0 0 0 0 0 0 1 1 1 1 1 1
1 1 1 1 1 1 1 1 0 0 0 0 0 0 1 1 1 1 1 1
1 1 1 1 1 1 1 1 0 0 0 0 0 0 1 1 1 1 1 1
1 1 1 1 1 1 1 0 0 0 0 0 0 0 0 1 1 1 1 1
1 1 1 1 1 1 0 0 0 0 1 0 0 0 0 0 1 1 1 1
1 1 1 1 1 1 0 0 0 0 1 1 0 0 0 0 1 1 1 1
1 1 1 1 1 0 0 0 0 1 1 1 1 0 0 0 0 1 1 1
1 1 1 1 0 0 0 0 1 1 1 1 1 1 0 0 0 0 1 1
1 1 1 1 0 0 0 0 1 1 1 1 1 1 0 0 0 0 1 1
1 1 1 0 0 0 0 1 1 1 1 1 1 1 1 0 0 0 1 1
1 0 1 0 0 0 0 1 1 1 1 1 1 1 1 0 0 0 1 1
1 1 0 0 0 0 1 1 1 1 1 1 1 1 1 0 0 0 0 1
1 1 0 0 0 0 1 1 1 1 1 1 1 1 1 0 0 0 1 1
1 1 0 0 0 0 1 1 1 1 1 1 1 1 1 0 0 0 0 1
1 1 0 0 0 0 1 1 1 1 1 1 1 1 1 0 0 0 0 1
1 0 0 0 0 0 1 1 1 1 1 1 1 1 1 0 0 0 1 1
1 1 0 0 0 0 1 1 1 1 1 1 1 1 0 0 0 0 1 1
1 1 0 0 0 0 1 1 1 1 1 1 1 1 0 0 0 0 1 1
1 1 1 0 0 0 0 1 1 1 1 1 1 0 0 0 0 0 1 1
1 1 1 0 0 0 0 1 1 1 1 1 1 0 0 0 0 1 1 1
1 1 1 0 0 0 0 0 1 1 1 0 0 0 0 0 1 1 1 1
1 1 1 0 0 0 0 0 0 0 0 0 0 0 0 0 1 1 1 1
1 1 1 1 1 0 0 0 0 0 0 0 0 0 1 1 1 1 1 1
1 1 1 1 1 0 0 0 0 0 0 0 0 1 1 1 1 1 1 1
1 1 1 1 1 1 1 1 0 1 1 1 1 1 1 1 1 1 1 1
1 1 1 1 1 1 1 1 1 1 1 1 1 1 1 1 1 1 1 1
